{
	"asset":{
		"generator":"Khronos glTF Blender I/O v3.6.27",
		"version":"2.0"
	},
	"scene":0,
	"scenes":[
		{
			"name":"giorno",
			"nodes":[
				0
			]
		}
	],
	"nodes":[
		{
			"mesh":0,
			"name":"0_curve_.063"
		}
	],
	"materials":[
		{
			"doubleSided":true,
			"name":"matte_white.001",
			"pbrMetallicRoughness":{}
		},
		{
			"doubleSided":true,
			"name":"Cemento",
			"pbrMetallicRoughness":{}
		},
		{
			"doubleSided":true,
			"name":"Acciaio",
			"pbrMetallicRoughness":{}
		},
		{
			"doubleSided":true,
			"name":"glass_architectural.005",
			"pbrMetallicRoughness":{}
		},
		{
			"doubleSided":true,
			"name":"Glossy",
			"pbrMetallicRoughness":{}
		},
		{
			"doubleSided":true,
			"name":"Acciaio.001",
			"pbrMetallicRoughness":{}
		}
	],
	"meshes":[
		{
			"name":"Mesh.026",
			"primitives":[
				{
					"attributes":{
						"POSITION":0,
						"NORMAL":1
					},
					"indices":2,
					"material":0
				},
				{
					"attributes":{
						"POSITION":3,
						"NORMAL":4
					},
					"indices":5,
					"material":1
				},
				{
					"attributes":{
						"POSITION":6,
						"NORMAL":7
					},
					"indices":8,
					"material":2
				},
				{
					"attributes":{
						"POSITION":9,
						"NORMAL":10
					},
					"indices":11,
					"material":3
				},
				{
					"attributes":{
						"POSITION":12,
						"NORMAL":13
					},
					"indices":14,
					"material":4
				},
				{
					"attributes":{
						"POSITION":15,
						"NORMAL":16
					},
					"indices":17,
					"material":5
				}
			]
		}
	],
	"accessors":[
		{
			"bufferView":0,
			"componentType":5126,
			"count":64630,
			"max":[
				110.50000762939453,
				255.92970275878906,
				25.500001907348633
			],
			"min":[
				-110.50000762939453,
				0,
				-25.500001907348633
			],
			"type":"VEC3"
		},
		{
			"bufferView":1,
			"componentType":5126,
			"count":64630,
			"type":"VEC3"
		},
		{
			"bufferView":2,
			"componentType":5123,
			"count":149496,
			"type":"SCALAR"
		},
		{
			"bufferView":3,
			"componentType":5126,
			"count":501,
			"max":[
				99.00000762939453,
				24.929697036743164,
				18
			],
			"min":[
				-99.00000762939453,
				0.9296948313713074,
				-18
			],
			"type":"VEC3"
		},
		{
			"bufferView":4,
			"componentType":5126,
			"count":501,
			"type":"VEC3"
		},
		{
			"bufferView":5,
			"componentType":5123,
			"count":1140,
			"type":"SCALAR"
		},
		{
			"bufferView":6,
			"componentType":5126,
			"count":502,
			"max":[
				110.00000762939453,
				25.92969512939453,
				25.000001907348633
			],
			"min":[
				-110.00000762939453,
				24.929697036743164,
				-25.000001907348633
			],
			"type":"VEC3"
		},
		{
			"bufferView":7,
			"componentType":5126,
			"count":502,
			"type":"VEC3"
		},
		{
			"bufferView":8,
			"componentType":5123,
			"count":1140,
			"type":"SCALAR"
		},
		{
			"bufferView":9,
			"componentType":5126,
			"count":502,
			"max":[
				110.00000762939453,
				24.929697036743164,
				25.000001907348633
			],
			"min":[
				-110.00000762939453,
				0.9296948313713074,
				-25.000001907348633
			],
			"type":"VEC3"
		},
		{
			"bufferView":10,
			"componentType":5126,
			"count":502,
			"type":"VEC3"
		},
		{
			"bufferView":11,
			"componentType":5123,
			"count":1140,
			"type":"SCALAR"
		},
		{
			"bufferView":12,
			"componentType":5126,
			"count":375,
			"max":[
				99.42418670654297,
				247.92971801757812,
				22.37001609802246
			],
			"min":[
				-101.30985260009766,
				24.929697036743164,
				-18.629987716674805
			],
			"type":"VEC3"
		},
		{
			"bufferView":13,
			"componentType":5126,
			"count":375,
			"type":"VEC3"
		},
		{
			"bufferView":14,
			"componentType":5123,
			"count":876,
			"type":"SCALAR"
		},
		{
			"bufferView":15,
			"componentType":5126,
			"count":700,
			"max":[
				100.9308090209961,
				227.14537048339844,
				10
			],
			"min":[
				-102.95423889160156,
				23.929702758789062,
				-5.99928092956543
			],
			"type":"VEC3"
		},
		{
			"bufferView":16,
			"componentType":5126,
			"count":700,
			"type":"VEC3"
		},
		{
			"bufferView":17,
			"componentType":5123,
			"count":1728,
			"type":"SCALAR"
		}
	],
	"bufferViews":[
		{
			"buffer":0,
			"byteLength":775560,
			"byteOffset":0,
			"target":34962
		},
		{
			"buffer":0,
			"byteLength":775560,
			"byteOffset":775560,
			"target":34962
		},
		{
			"buffer":0,
			"byteLength":298992,
			"byteOffset":1551120,
			"target":34963
		},
		{
			"buffer":0,
			"byteLength":6012,
			"byteOffset":1850112,
			"target":34962
		},
		{
			"buffer":0,
			"byteLength":6012,
			"byteOffset":1856124,
			"target":34962
		},
		{
			"buffer":0,
			"byteLength":2280,
			"byteOffset":1862136,
			"target":34963
		},
		{
			"buffer":0,
			"byteLength":6024,
			"byteOffset":1864416,
			"target":34962
		},
		{
			"buffer":0,
			"byteLength":6024,
			"byteOffset":1870440,
			"target":34962
		},
		{
			"buffer":0,
			"byteLength":2280,
			"byteOffset":1876464,
			"target":34963
		},
		{
			"buffer":0,
			"byteLength":6024,
			"byteOffset":1878744,
			"target":34962
		},
		{
			"buffer":0,
			"byteLength":6024,
			"byteOffset":1884768,
			"target":34962
		},
		{
			"buffer":0,
			"byteLength":2280,
			"byteOffset":1890792,
			"target":34963
		},
		{
			"buffer":0,
			"byteLength":4500,
			"byteOffset":1893072,
			"target":34962
		},
		{
			"buffer":0,
			"byteLength":4500,
			"byteOffset":1897572,
			"target":34962
		},
		{
			"buffer":0,
			"byteLength":1752,
			"byteOffset":1902072,
			"target":34963
		},
		{
			"buffer":0,
			"byteLength":8400,
			"byteOffset":1903824,
			"target":34962
		},
		{
			"buffer":0,
			"byteLength":8400,
			"byteOffset":1912224,
			"target":34962
		},
		{
			"buffer":0,
			"byteLength":3456,
			"byteOffset":1920624,
			"target":34963
		}
	],
	"buffers":[
		{
			"byteLength":1924080,
			"uri":"data:application/octet-stream;base64,"
		}
	]
}
